<mxfile host="app.diagrams.net" modified="2021-07-31T10:36:05.719Z" agent="5.0 (Windows NT 6.1; Win64; x64) AppleWebKit/537.36 (KHTML, like Gecko) Chrome/92.0.4515.107 Safari/537.36" etag="IzI1b1_Op-SQZ_xaL-lX" version="14.9.3" type="github">
  <diagram id="C5RBs43oDa-KdzZeNtuy" name="Page-1">
    <mxGraphModel dx="693" dy="746" grid="1" gridSize="10" guides="1" tooltips="1" connect="1" arrows="1" fold="1" page="1" pageScale="1" pageWidth="827" pageHeight="1169" math="0" shadow="0">
      <root>
        <mxCell id="WIyWlLk6GJQsqaUBKTNV-0" />
        <mxCell id="WIyWlLk6GJQsqaUBKTNV-1" parent="WIyWlLk6GJQsqaUBKTNV-0" />
        <mxCell id="bFn-_cgj2wKhVDFezU3A-6" value="" style="edgeStyle=orthogonalEdgeStyle;rounded=0;orthogonalLoop=1;jettySize=auto;html=1;fontSize=20;" parent="WIyWlLk6GJQsqaUBKTNV-1" source="bFn-_cgj2wKhVDFezU3A-0" target="bFn-_cgj2wKhVDFezU3A-1" edge="1">
          <mxGeometry relative="1" as="geometry" />
        </mxCell>
        <mxCell id="bFn-_cgj2wKhVDFezU3A-0" value="" style="ellipse;fillColor=#000000;strokeColor=none;" parent="WIyWlLk6GJQsqaUBKTNV-1" vertex="1">
          <mxGeometry x="330" y="50" width="30" height="30" as="geometry" />
        </mxCell>
        <mxCell id="bFn-_cgj2wKhVDFezU3A-7" value="" style="edgeStyle=orthogonalEdgeStyle;rounded=0;orthogonalLoop=1;jettySize=auto;html=1;fontSize=20;" parent="WIyWlLk6GJQsqaUBKTNV-1" source="bFn-_cgj2wKhVDFezU3A-1" target="bFn-_cgj2wKhVDFezU3A-3" edge="1">
          <mxGeometry relative="1" as="geometry" />
        </mxCell>
        <mxCell id="bFn-_cgj2wKhVDFezU3A-1" value="s = 0&lt;br&gt;i = 1" style="rounded=1;whiteSpace=wrap;html=1;absoluteArcSize=1;arcSize=14;strokeWidth=2;fontSize=20;" parent="WIyWlLk6GJQsqaUBKTNV-1" vertex="1">
          <mxGeometry x="295" y="110" width="100" height="60" as="geometry" />
        </mxCell>
        <mxCell id="bFn-_cgj2wKhVDFezU3A-10" style="edgeStyle=orthogonalEdgeStyle;rounded=0;orthogonalLoop=1;jettySize=auto;html=1;exitX=0;exitY=0.5;exitDx=0;exitDy=0;entryX=0.5;entryY=0;entryDx=0;entryDy=0;fontSize=20;" parent="WIyWlLk6GJQsqaUBKTNV-1" source="bFn-_cgj2wKhVDFezU3A-2" target="bFn-_cgj2wKhVDFezU3A-9" edge="1">
          <mxGeometry relative="1" as="geometry" />
        </mxCell>
        <mxCell id="bFn-_cgj2wKhVDFezU3A-2" value="&lt;font style=&quot;font-size: 20px&quot;&gt;i &amp;lt;= 10&lt;/font&gt;" style="shape=stencil(tZXbUoQwDIafprdOD673Dup7VDYrHbsNU+quvr2hpQou4B6AYWCStF//0KQwVTSVroFJXjH1xKQUnNOT7GOyZbZ1U0MZkvOgvdGvFlKkCR7f4Wi2oWMYV4E3oY2qZ8YfaUx7q6JE5whi0DWDSC9OMG0czeWfCdYt/zWwauLvIYDvRCcvky/nY+8264DFSnqH2Kx+cb3LgYeKxVobtxhYXI9VBXmmilsVO/Tw5vHDbUfFpP4p0aInR3rH1ZhUPF7zyeyMtSOzHTqYn9hvXGr43wb+5+vVuh14EsjhPR5gqgw2s7lkgjWuR7gfPQIuIYiHmxE/5+ANifyVIeZ39qyvcRXjklRibU/seC6hqZY4KfzoTX+c6PgG);whiteSpace=wrap;html=1;strokeWidth=1;" parent="WIyWlLk6GJQsqaUBKTNV-1" vertex="1">
          <mxGeometry x="272.5" y="250" width="145" height="50" as="geometry" />
        </mxCell>
        <mxCell id="bFn-_cgj2wKhVDFezU3A-8" value="" style="edgeStyle=orthogonalEdgeStyle;rounded=0;orthogonalLoop=1;jettySize=auto;html=1;fontSize=20;" parent="WIyWlLk6GJQsqaUBKTNV-1" source="bFn-_cgj2wKhVDFezU3A-3" target="bFn-_cgj2wKhVDFezU3A-2" edge="1">
          <mxGeometry relative="1" as="geometry" />
        </mxCell>
        <mxCell id="bFn-_cgj2wKhVDFezU3A-14" style="edgeStyle=orthogonalEdgeStyle;rounded=0;orthogonalLoop=1;jettySize=auto;html=1;exitX=1;exitY=0.5;exitDx=0;exitDy=0;fontSize=20;" parent="WIyWlLk6GJQsqaUBKTNV-1" source="bFn-_cgj2wKhVDFezU3A-2" target="bFn-_cgj2wKhVDFezU3A-13" edge="1">
          <mxGeometry relative="1" as="geometry" />
        </mxCell>
        <mxCell id="bFn-_cgj2wKhVDFezU3A-3" value="" style="rhombus;fontSize=20;strokeWidth=1;" parent="WIyWlLk6GJQsqaUBKTNV-1" vertex="1">
          <mxGeometry x="330" y="200" width="30" height="30" as="geometry" />
        </mxCell>
        <mxCell id="bFn-_cgj2wKhVDFezU3A-12" style="edgeStyle=orthogonalEdgeStyle;rounded=0;orthogonalLoop=1;jettySize=auto;html=1;exitX=0.5;exitY=1;exitDx=0;exitDy=0;entryX=0;entryY=0.5;entryDx=0;entryDy=0;fontSize=20;" parent="WIyWlLk6GJQsqaUBKTNV-1" source="bFn-_cgj2wKhVDFezU3A-9" target="bFn-_cgj2wKhVDFezU3A-3" edge="1">
          <mxGeometry relative="1" as="geometry">
            <Array as="points">
              <mxPoint x="245" y="400" />
              <mxPoint x="170" y="400" />
              <mxPoint x="170" y="215" />
            </Array>
          </mxGeometry>
        </mxCell>
        <mxCell id="bFn-_cgj2wKhVDFezU3A-9" value="s = s + i&lt;br&gt;i = i + 1" style="rounded=1;whiteSpace=wrap;html=1;absoluteArcSize=1;arcSize=14;strokeWidth=2;fontSize=20;" parent="WIyWlLk6GJQsqaUBKTNV-1" vertex="1">
          <mxGeometry x="195" y="320" width="100" height="60" as="geometry" />
        </mxCell>
        <mxCell id="bFn-_cgj2wKhVDFezU3A-11" value="yes" style="text;html=1;align=center;verticalAlign=middle;resizable=0;points=[];autosize=1;strokeColor=none;fontSize=20;" parent="WIyWlLk6GJQsqaUBKTNV-1" vertex="1">
          <mxGeometry x="230" y="245" width="50" height="30" as="geometry" />
        </mxCell>
        <mxCell id="bFn-_cgj2wKhVDFezU3A-16" value="" style="edgeStyle=orthogonalEdgeStyle;rounded=0;orthogonalLoop=1;jettySize=auto;html=1;fontSize=20;" parent="WIyWlLk6GJQsqaUBKTNV-1" source="bFn-_cgj2wKhVDFezU3A-13" target="bFn-_cgj2wKhVDFezU3A-15" edge="1">
          <mxGeometry relative="1" as="geometry" />
        </mxCell>
        <mxCell id="bFn-_cgj2wKhVDFezU3A-13" value="Вывод s" style="html=1;shape=mxgraph.infographic.ribbonSimple;notch1=0;notch2=20;align=center;verticalAlign=middle;fontSize=20;fontStyle=0;fillColor=#FFFFFF;strokeWidth=2;" parent="WIyWlLk6GJQsqaUBKTNV-1" vertex="1">
          <mxGeometry x="414" y="320" width="135" height="50" as="geometry" />
        </mxCell>
        <mxCell id="bFn-_cgj2wKhVDFezU3A-15" value="" style="ellipse;fillColor=#000000;strokeColor=none;" parent="WIyWlLk6GJQsqaUBKTNV-1" vertex="1">
          <mxGeometry x="466.5" y="400" width="30" height="30" as="geometry" />
        </mxCell>
        <mxCell id="Dc6TTWTkgrAXcEeP03_u-0" value="no" style="text;html=1;align=center;verticalAlign=middle;resizable=0;points=[];autosize=1;strokeColor=none;fontSize=20;" vertex="1" parent="WIyWlLk6GJQsqaUBKTNV-1">
          <mxGeometry x="430" y="245" width="40" height="30" as="geometry" />
        </mxCell>
      </root>
    </mxGraphModel>
  </diagram>
</mxfile>
